<?xml version="1.0" encoding="UTF-8" standalone="no"?>
<svg
   xmlns:dc="http://purl.org/dc/elements/1.1/"
   xmlns:cc="http://creativecommons.org/ns#"
   xmlns:rdf="http://www.w3.org/1999/02/22-rdf-syntax-ns#"
   xmlns:svg="http://www.w3.org/2000/svg"
   xmlns="http://www.w3.org/2000/svg"
   xmlns:sodipodi="http://sodipodi.sourceforge.net/DTD/sodipodi-0.dtd"
   xmlns:inkscape="http://www.inkscape.org/namespaces/inkscape"
   viewBox="0.0 0.0 348.0 348.0"
   fill="none"
   version="1.1"
   id="svg6"
   sodipodi:docname="The Fortnight.svg"
   inkscape:version="0.92.3 (2405546, 2018-03-11)">
  <metadata
     id="metadata12">
    <rdf:RDF>
      <cc:Work
         rdf:about="">
        <dc:format>image/svg+xml</dc:format>
        <dc:type
           rdf:resource="http://purl.org/dc/dcmitype/StillImage" />
        <dc:title></dc:title>
      </cc:Work>
    </rdf:RDF>
  </metadata>
  <defs
     id="defs10" />
  <sodipodi:namedview
     pagecolor="#ffffff"
     bordercolor="#666666"
     borderopacity="1"
     objecttolerance="10"
     gridtolerance="10"
     guidetolerance="10"
     inkscape:pageopacity="0"
     inkscape:pageshadow="2"
     inkscape:window-width="1920"
     inkscape:window-height="1017"
     id="namedview8"
     showgrid="false"
     showguides="false"
     inkscape:zoom="1.9181287"
     inkscape:cx="192.60911"
     inkscape:cy="175.9256"
     inkscape:window-x="1912"
     inkscape:window-y="32"
     inkscape:window-maximized="1"
     inkscape:current-layer="svg6" />
  <path
     d="M5.079 5.776h336.913v337.67H5.08z"
     stroke-width="2"
     stroke="#000"
     id="path2" />
  <path
     d="M282.734 40.554c0-8.376 6.966-15.165 15.56-15.165 4.126 0 8.084 1.597 11.001 4.441 2.918 2.844 4.558 6.702 4.558 10.724 0 8.376-6.966 15.165-15.56 15.165-8.593 0-15.559-6.79-15.559-15.165z"
     stroke-width="2"
     stroke="#000"
     id="path4" />
  <text
     xml:space="preserve"
     style="font-style:normal;font-variant:normal;font-weight:normal;font-stretch:normal;font-size:40px;line-height:1.25;font-family:'Agency FB';-inkscape-font-specification:'Agency FB';letter-spacing:0px;word-spacing:0px;fill:#000000;fill-opacity:1;stroke:none;"
     x="30.237804"
     y="39.365868"
     id="text16"><tspan
       sodipodi:role="line"
       id="tspan14"
       x="30.237804"
       y="72.058174" /></text>
  <g
     aria-label="This module
will show
the fortnight
logo"
     style="font-style:normal;font-variant:normal;font-weight:normal;font-stretch:normal;font-size:40px;line-height:1.25;font-family:AirbusMCDUa;-inkscape-font-specification:AirbusMCDUa;letter-spacing:0px;word-spacing:0px;fill:#000000;fill-opacity:1;stroke:none"
     id="text20">
    <path
       d="m 24.207031,85.011436 h 18.359375 v 3.515625 H 35.144531 V 113.91769 H 31.628906 V 88.527061 h -7.421875 z"
       style=""
       id="path32" />
    <path
       d="m 51.707031,101.22237 v 12.69532 H 48.191406 V 85.011436 h 3.515625 V 97.706749 H 63.035156 V 85.011436 h 3.515625 v 28.906254 h -3.515625 v -12.69532 z"
       style=""
       id="path34" />
    <path
       d="M 79.597656,88.527061 H 73.835937 V 85.011436 H 88.875 v 3.515625 H 83.113281 V 110.40206 H 88.875 v 3.51563 H 73.835937 v -3.51563 h 5.761719 z"
       style=""
       id="path36" />
    <path
       d="m 105.37891,101.22237 q -9.16016,-0.0391 -9.179691,-8.105465 -0.01953,-8.066406 9.199221,-8.105469 9.16015,-0.03906 9.16015,9.179688 l -3.51562,0.390625 q 0,-6.054688 -5.66406,-6.054688 -5.664066,0 -5.664066,4.589844 0,4.589844 5.664066,4.589844 9.17968,0 9.17968,8.105471 0,8.08594 -9.17968,8.10547 -0.0195,0 -0.0391,0 -9.140621,0 -9.140621,-7.8125 l 3.515625,-0.39063 q 0,4.6875 5.664066,4.6875 5.66406,0 5.66406,-4.57031 0,-4.58984 -5.66406,-4.60938 z"
       style=""
       id="path38" />
    <path
       d="m 145.14453,113.91769 h -3.51562 V 85.011436 h 3.51562 l 5.66406,8.203125 5.66407,-8.203125 h 3.51562 v 28.906254 h -3.51562 V 91.261436 l -5.66407,8.203125 -5.66406,-8.203125 z"
       style=""
       id="path40" />
    <path
       d="m 180.45703,99.464561 q 0,-10.9375 -5.66406,-10.9375 -5.66406,0 -5.66406,10.9375 0,10.937499 5.66406,10.937499 5.66406,0 5.66406,-10.937499 z m -5.66406,14.453129 q -9.17969,0 -9.17969,-14.453129 0,-14.453125 9.17969,-14.453125 9.17969,0 9.17969,14.453125 0,14.453129 -9.17969,14.453129 z"
       style=""
       id="path42" />
    <path
       d="m 204.44141,95.558311 q 0,-3.085937 -1.67969,-5.058593 -1.66016,-1.972657 -4.27735,-1.972657 h -5.37109 v 21.874999 h 5.37109 q 2.61719,0 4.27735,-1.97265 1.67969,-1.97266 1.67969,-5.0586 z M 189.59766,113.91769 V 85.011436 h 8.49609 q 4.55078,0 7.22656,2.949219 2.63672,2.929688 2.63672,7.988281 v 7.031254 q 0,5.05859 -2.63672,7.98828 -2.67578,2.94922 -7.22656,2.94922 z"
       style=""
       id="path44" />
    <path
       d="m 231.94141,104.15206 q 0,9.76563 -9.17969,9.76563 -0.0391,0 -0.0781,0 -0.0391,0 -0.0781,0 -9.02344,0 -9.02344,-9.76563 V 85.011436 h 3.51563 v 19.140624 q 0,6.25 5.66406,6.25 0.0195,0 0.0391,0.0195 0.0195,0 0.0391,0 5.58594,0 5.58594,-6.26953 V 85.011436 h 3.51563 z"
       style=""
       id="path46" />
    <path
       d="m 241.08203,110.40206 h 14.84375 v 3.51563 H 237.56641 V 85.011436 h 3.51562 z"
       style=""
       id="path48" />
    <path
       d="M 261.55078,113.91769 V 85.011436 h 18.35938 v 3.515625 h -14.84375 v 9.179688 h 7.91015 v 3.515621 h -7.91015 v 9.17969 h 14.84375 v 3.51563 z"
       style=""
       id="path50" />
    <path
       d="m 27.722656,135.01144 v 22.65625 l 5.664063,-8.20313 5.664062,8.20313 v -22.65625 h 3.515625 v 28.90625 h -3.515625 l -5.664062,-8.20313 -5.664063,8.20313 h -3.515625 v -28.90625 z"
       style=""
       id="path52" />
    <path
       d="m 55.613281,138.52706 h -5.761719 v -3.51562 h 15.039063 v 3.51562 h -5.761719 v 21.875 h 5.761719 v 3.51563 H 49.851562 v -3.51563 h 5.761719 z"
       style=""
       id="path54" />
    <path
       d="m 75.691406,160.40206 h 14.84375 v 3.51563 H 72.175781 v -28.90625 h 3.515625 z"
       style=""
       id="path56" />
    <path
       d="m 99.675781,160.40206 h 14.843749 v 3.51563 H 96.160156 v -28.90625 h 3.515625 z"
       style=""
       id="path58" />
    <path
       d="m 150.84766,151.22237 q -9.16016,-0.0391 -9.17969,-8.10546 -0.0195,-8.06641 9.19922,-8.10547 9.16015,-0.0391 9.16015,9.17968 l -3.51562,0.39063 q 0,-6.05469 -5.66406,-6.05469 -5.66407,0 -5.66407,4.58985 0,4.58984 5.66407,4.58984 9.17968,0 9.17968,8.10547 0,8.08594 -9.17968,8.10547 -0.0195,0 -0.0391,0 -9.14062,0 -9.14062,-7.8125 l 3.51562,-0.39063 q 0,4.6875 5.66407,4.6875 5.66406,0 5.66406,-4.57031 0,-4.58984 -5.66406,-4.60938 z"
       style=""
       id="path60" />
    <path
       d="m 169.12891,151.22237 v 12.69532 h -3.51563 v -28.90625 h 3.51563 v 12.69531 h 11.32812 v -12.69531 h 3.51563 v 28.90625 h -3.51563 v -12.69532 z"
       style=""
       id="path62" />
    <path
       d="m 204.44141,149.46456 q 0,-10.9375 -5.66407,-10.9375 -5.66406,0 -5.66406,10.9375 0,10.9375 5.66406,10.9375 5.66407,0 5.66407,-10.9375 z m -5.66407,14.45313 q -9.17968,0 -9.17968,-14.45313 0,-14.45312 9.17968,-14.45312 9.17969,0 9.17969,14.45312 0,14.45313 -9.17969,14.45313 z"
       style=""
       id="path64" />
    <path
       d="m 217.09766,135.01144 v 22.65625 l 5.66406,-8.20313 5.66406,8.20313 v -22.65625 h 3.51563 v 28.90625 h -3.51563 l -5.66406,-8.20313 -5.66406,8.20313 h -3.51563 v -28.90625 z"
       style=""
       id="path66" />
    <path
       d="m 24.207031,185.01144 h 18.359375 v 3.51562 h -7.421875 v 25.39063 h -3.515625 v -25.39063 h -7.421875 z"
       style=""
       id="path68" />
    <path
       d="m 51.707031,201.22237 v 12.69532 h -3.515625 v -28.90625 h 3.515625 v 12.69531 h 11.328125 v -12.69531 h 3.515625 v 28.90625 h -3.515625 v -12.69532 z"
       style=""
       id="path70" />
    <path
       d="m 72.175781,213.91769 v -28.90625 h 18.359375 v 3.51562 h -14.84375 v 9.17969 h 7.910156 v 3.51562 h -7.910156 v 9.17969 h 14.84375 v 3.51563 z"
       style=""
       id="path72" />
    <path
       d="m 117.64453,213.91769 v -28.90625 h 18.35938 v 3.51562 h -14.84375 v 9.17969 h 7.91015 v 3.51562 h -7.91015 v 12.69532 z"
       style=""
       id="path74" />
    <path
       d="m 156.47266,199.46456 q 0,-10.9375 -5.66407,-10.9375 -5.66406,0 -5.66406,10.9375 0,10.9375 5.66406,10.9375 5.66407,0 5.66407,-10.9375 z m -5.66407,14.45313 q -9.17968,0 -9.17968,-14.45313 0,-14.45312 9.17968,-14.45312 9.17969,0 9.17969,14.45312 0,14.45313 -9.17969,14.45313 z"
       style=""
       id="path76" />
    <path
       d="m 169.12891,188.52706 v 9.17969 h 5.76171 q 5.56641,0 5.56641,-4.58984 0,-4.58985 -5.56641,-4.58985 z m 12.5,25.39063 -10.9375,-12.69532 h -1.5625 v 12.69532 h -3.51563 v -28.90625 h 9.27734 q 9.10157,0 9.08204,8.10547 0,8.10546 -8.69141,8.10546 l 8.69141,10.0586 v 2.63672 z"
       style=""
       id="path78" />
    <path
       d="m 189.59766,185.01144 h 18.35937 v 3.51562 h -7.42187 v 25.39063 h -3.51563 v -25.39063 h -7.42187 z"
       style=""
       id="path80" />
    <path
       d="M 213.58203,213.91769 V 184.4255 h 3.51563 l 11.32812,21.71875 V 184.4255 h 3.51563 v 29.49219 h -3.51563 l -11.32812,-21.71875 v 21.71875 z"
       style=""
       id="path82" />
    <path
       d="m 244.98828,188.52706 h -5.76172 v -3.51562 h 15.03906 v 3.51562 h -5.76171 v 21.875 h 5.76171 v 3.51563 h -15.03906 v -3.51563 h 5.76172 z"
       style=""
       id="path84" />
    <path
       d="m 270.73047,213.89816 q -9.17969,0 -9.17969,-8.1836 v -12.5 q 0,-8.20312 9.17969,-8.20312 7.30469,0 9.17969,6.44531 l -3.51563,0.39062 q -1.77734,-3.32031 -5.66406,-3.32031 -5.66406,0 -5.66406,4.6875 v 12.5 q 0,4.6875 5.66406,4.6875 5.66406,0 5.66406,-4.6875 v -4.49219 h -7.32422 v -3.51562 h 10.83985 v 8.00781 q 0,8.1836 -9.14063,8.1836 -0.0195,0 -0.0391,0 z"
       style=""
       id="path86" />
    <path
       d="m 289.05078,201.22237 v 12.69532 h -3.51562 v -28.90625 h 3.51562 v 12.69531 h 11.32813 v -12.69531 h 3.51562 v 28.90625 h -3.51562 v -12.69532 z"
       style=""
       id="path88" />
    <path
       d="m 309.51953,185.01144 h 18.35938 v 3.51562 h -7.42188 v 25.39063 h -3.51562 v -25.39063 h -7.42188 z"
       style=""
       id="path90" />
    <path
       d="m 27.722656,260.40206 h 14.84375 v 3.51563 H 24.207031 v -28.90625 h 3.515625 z"
       style=""
       id="path92" />
    <path
       d="m 63.035156,249.46456 q 0,-10.9375 -5.664062,-10.9375 -5.664063,0 -5.664063,10.9375 0,10.9375 5.664063,10.9375 5.664062,0 5.664062,-10.9375 z m -5.664062,14.45313 q -9.179688,0 -9.179688,-14.45313 0,-14.45312 9.179688,-14.45312 9.179687,0 9.179687,14.45312 0,14.45313 -9.179687,14.45313 z"
       style=""
       id="path94" />
    <path
       d="m 81.355469,263.89816 q -9.179688,0 -9.179688,-8.1836 v -12.5 q 0,-8.20312 9.179688,-8.20312 7.304687,0 9.179687,6.44531 l -3.515625,0.39062 q -1.777344,-3.32031 -5.664062,-3.32031 -5.664063,0 -5.664063,4.6875 v 12.5 q 0,4.6875 5.664063,4.6875 5.664062,0 5.664062,-4.6875 v -4.49219 h -7.324219 v -3.51562 h 10.839844 v 8.00781 q 0,8.1836 -9.140625,8.1836 -0.01953,0 -0.03906,0 z"
       style=""
       id="path96" />
    <path
       d="m 111.00391,249.46456 q 0,-10.9375 -5.66407,-10.9375 -5.664059,0 -5.664059,10.9375 0,10.9375 5.664059,10.9375 5.66407,0 5.66407,-10.9375 z m -5.66407,14.45313 q -9.179684,0 -9.179684,-14.45313 0,-14.45312 9.179684,-14.45312 9.17969,0 9.17969,14.45312 0,14.45313 -9.17969,14.45313 z"
       style=""
       id="path98" />
  </g>
</svg>
