# Blender v2.79 (sub 0) OBJ File: ''
# www.blender.org
mtllib ok.mtl
o Cube
v 1.000000 -1.000000 1.000000
v -1.000000 -1.000000 1.000000
v 0.999999 1.000000 1.000001
v -1.000000 1.000000 1.000000
v 0.016742 -1.000000 -1.000000
v 1.000000 -1.000000 -0.016742
v 1.000000 1.000000 -0.016741
v 0.016742 1.000000 -1.000000
v -1.000000 -1.000000 0.359177
v 0.016742 -1.000000 -1.000000
v 0.016742 1.000000 -1.000000
v -1.000000 1.000000 0.359177
vn 0.0000 -1.0000 0.0000
vn 0.0000 1.0000 0.0000
vn -0.0000 -0.0000 1.0000
vn 0.1521 0.0000 -0.9884
vn 0.7071 0.0000 -0.7071
vn 1.0000 0.0000 0.0000
vn -0.8007 -0.0000 -0.5990
vn -1.0000 -0.0000 -0.0000
usemtl Material
s off
f 5//1 6//1 1//1 2//1 9//1 10//1
f 7//2 8//2 11//2 12//2 4//2 3//2
f 1//3 3//3 4//3 2//3
f 8//4 5//4 10//4 11//4
f 5//5 8//5 7//5 6//5
f 6//6 7//6 3//6 1//6
f 9//7 12//7 11//7 10//7
f 2//8 4//8 12//8 9//8
